<svg xmlns="http://www.w3.org/2000/svg" viewBox="0 0 64 64">
  <defs>
    <linearGradient id="face" x1="0" y1="0" x2="1" y2="1">
      <stop offset="0%" stop-color="#b0b0b0"/>
      <stop offset="50%" stop-color="#888888"/>
      <stop offset="100%" stop-color="#606060"/>
    </linearGradient>
    <linearGradient id="side" x1="0" y1="0" x2="1" y2="0">
      <stop offset="0%" stop-color="#484848"/>
      <stop offset="100%" stop-color="#2a2a2a"/>
    </linearGradient>
    <linearGradient id="top" x1="0" y1="0" x2="1" y2="1">
      <stop offset="0%" stop-color="#d0d0d0"/>
      <stop offset="100%" stop-color="#a0a0a0"/>
    </linearGradient>
  </defs>
  <!-- Front face of 3D M at three-quarter perspective -->
  <polygon points="8,56 8,14 18,8 28,36 32,24 42,8 52,14 52,56 42,52 42,28 34,48 26,48 18,28 18,52" fill="url(#face)"/>
  <!-- Right side depth -->
  <polygon points="52,14 58,18 58,58 52,56" fill="url(#side)"/>
  <polygon points="42,52 48,54 48,28 42,28" fill="url(#side)" opacity="0.6"/>
  <!-- Top edges -->
  <polygon points="8,14 14,10 24,4 18,8" fill="url(#top)"/>
  <polygon points="42,8 48,4 58,18 52,14" fill="url(#top)"/>
  <polygon points="18,8 24,4 34,20 28,36" fill="url(#top)" opacity="0.7"/>
  <polygon points="32,24 38,20 48,4 42,8" fill="url(#top)" opacity="0.7"/>
  <!-- Bottom depth -->
  <polygon points="8,56 14,58 18,54 18,52" fill="url(#side)" opacity="0.5"/>
  <polygon points="52,56 58,58 48,54 42,52" fill="url(#side)" opacity="0.5"/>
</svg>
